# xmcd CD database file
#
# Track frame offsets:
#	150
#	23025
#	42632
#	61922
#	74867
#	98477
#	117480
#	135012
#	158062
#	177427
#
# Disc length: 2626 seconds
#
# Revision: 0
# Processed by: cddbd v1.5.2PL0 Copyright (c) Steve Scherf et al.
# Submitted via: CDex 1.70beta2
#
DISCID=850a400a
DTITLE=Cuco Valoy Y Su Nueva Tribu - Juntos Otra Vez
DYEAR=1988
DGENRE=Salsa
TTITLE0=Terapia De Amor
TTITLE1=Las Mujeres Son
TTITLE2=Aprende A Sonar
TTITLE3=A Ti Solita Te Quiero
TTITLE4=El Fogon Caliente
TTITLE5=Minimengue
TTITLE6=Donde Podre Gritar Que Te Quiero
TTITLE7=Anaisa
TTITLE8=Swing Latino
TTITLE9=Por Dios Que No
EXTD=YEAR: 1988
EXTT0=
EXTT1=
EXTT2=
EXTT3=
EXTT4=
EXTT5=
EXTT6=
EXTT7=
EXTT8=
EXTT9=
PLAYORDER=
